    <svg width="30" height="30" viewBox="0 0 30 30" fill="none" xmlns="http://www.w3.org/2000/svg">
            <path fill-rule="evenodd" clip-rule="evenodd" d="M5.24497 28.4888C5.06869 28.5956 4.83909 28.546 4.7232 28.3763L4.27933 27.7258C4.16344 27.556 4.20234 27.3261 4.36494 27.1996C5.82694 26.0627 7.02866 24.7815 7.97376 23.4089C11.4928 18.2988 11.4928 11.868 7.97376 6.75777C7.02866 5.38534 5.82694 4.10397 4.36494 2.96712C4.20234 2.84067 4.16344 2.61069 4.27933 2.44089L4.7232 1.79048C4.83909 1.62068 5.06869 1.57116 5.24497 1.67796L24.9622 13.6228C26.0627 14.2895 26.0627 15.8773 24.9622 16.544L5.24497 28.4888Z" fill="url(#paint0_linear_1_20)" />
            <defs>
                <linearGradient id="paint0_linear_1_20" x1="25.7874" y1="10.5029" x2="4.21252" y2="10.5029" gradientUnits="userSpaceOnUse">
                    <stop stop-color="#3568DD" />
                    <stop offset="1" stop-color="#7DA3F9" />
                </linearGradient>
            </defs>
        </svg>