<svg width="31" height="31" viewBox="0 0 31 31" fill="none" xmlns="http://www.w3.org/2000/svg">
        <path d="M15.3238 0.0272064C23.608 0.0272064 30.3238 6.74234 30.3238 15.0272C30.3238 23.3121 23.608 30.0272 15.3238 30.0272C7.03962 30.0272 0.323822 23.3121 0.323822 15.0272C0.322449 6.74234 7.03825 0.0272064 15.3238 0.0272064Z" fill="white" />
        <path d="M6.71277 5.96704V24.0874H22.464V22.1676H8.87309V7.88682H22.464V5.96704H6.71277Z" fill="black" />
        <path d="M22.3431 20.6375C25.5527 20.6375 26.6926 18.808 26.6926 17.2478C26.6926 15.5072 25.7024 14.4584 23.7522 14.0974L21.7128 13.7378C21.0522 13.6175 20.3325 13.3782 20.3325 12.5974C20.3325 11.6676 21.2623 11.3367 22.1632 11.3367C23.3333 11.3367 23.9637 11.7264 24.1739 12.5673H26.3342C26.0636 10.6475 24.5337 9.44699 22.1934 9.44699C19.3739 9.44699 18.1131 11.0673 18.1131 12.6876C18.1131 14.308 19.0731 15.2979 20.8736 15.6275L22.9433 15.9871C23.6932 16.1375 24.443 16.4069 24.443 17.3668C24.443 18.2364 23.663 18.7765 22.4036 18.7765C20.9931 18.7765 20.1238 18.2364 19.9439 17.2164H17.7835C18.0541 19.3467 19.7035 20.6375 22.3431 20.6375Z" fill="black" />
    </svg>